<mxfile host="app.diagrams.net" agent="Mozilla/5.0 (Windows NT 10.0; Win64; x64) AppleWebKit/537.36 (KHTML, like Gecko) Chrome/132.0.0.0 Safari/537.36" version="26.0.7">
  <diagram name="Page-1" id="3e8102d1-ef87-2e61-34e1-82d9a586fe2e">
    <mxGraphModel dx="1050" dy="557" grid="1" gridSize="10" guides="1" tooltips="1" connect="1" arrows="1" fold="1" page="1" pageScale="1" pageWidth="1100" pageHeight="850" background="none" math="0" shadow="0">
      <root>
        <mxCell id="0" />
        <mxCell id="1" parent="0" />
        <mxCell id="70666756c84bb93c-1" value="" style="ellipse;whiteSpace=wrap;html=1;rounded=0;shadow=0;comic=0;strokeWidth=1;fontFamily=Verdana;fontSize=14;strokeColor=none;fillColor=#0069D1;" parent="1" vertex="1">
          <mxGeometry x="280" y="110" width="500" height="500" as="geometry" />
        </mxCell>
        <mxCell id="70666756c84bb93c-2" value="WMS Logist Plus" style="ellipse;whiteSpace=wrap;html=1;rounded=0;shadow=0;comic=0;strokeWidth=1;fontFamily=Verdana;fontSize=22;strokeColor=none;fillColor=#ffffff;fontColor=#0069D1;fontStyle=1" parent="1" vertex="1">
          <mxGeometry x="400" y="230" width="260" height="260" as="geometry" />
        </mxCell>
        <mxCell id="70666756c84bb93c-6" value="Comercialización" style="shadow=0;dashed=0;html=1;strokeColor=none;fillColor=#ffffff;labelPosition=center;verticalLabelPosition=bottom;verticalAlign=top;shape=mxgraph.office.users.call_center_agent;rounded=0;comic=0;fontFamily=Verdana;fontSize=14;fontColor=#FFFFFF;" parent="1" vertex="1">
          <mxGeometry x="660" y="413" width="46" height="55" as="geometry" />
        </mxCell>
        <mxCell id="LJ36bw9VPEOvPX9BSpLh-3" value="Inspección&lt;div&gt;&amp;nbsp;Contenedores&lt;/div&gt;" style="shape=mxgraph.signs.transportation.truck_1;html=1;pointerEvents=1;fillColor=default;strokeColor=none;verticalLabelPosition=bottom;verticalAlign=top;align=center;sketch=0;fontFamily=Verdana;fontSize=14;fontColor=#FFFFFF;flipH=0;flipV=0;fixedWidth=0;" vertex="1" parent="1">
          <mxGeometry x="310" y="242" width="77.65" height="40" as="geometry" />
        </mxCell>
        <mxCell id="LJ36bw9VPEOvPX9BSpLh-11" value="Almacenamiento" style="shape=mxgraph.signs.travel.museum;html=1;pointerEvents=1;verticalLabelPosition=bottom;verticalAlign=top;align=center;sketch=0;fontFamily=Verdana;fontColor=#FFFFFF;fontSize=14;" vertex="1" parent="1">
          <mxGeometry x="499.24" y="507" width="61.51" height="59" as="geometry" />
        </mxCell>
        <mxCell id="LJ36bw9VPEOvPX9BSpLh-12" value="Deposito Aduanero" style="shape=mxgraph.signs.transportation.ship_2;html=1;pointerEvents=1;verticalLabelPosition=bottom;verticalAlign=top;align=center;sketch=0;fontFamily=Verdana;fontSize=14;fontColor=#FFFFFF;" vertex="1" parent="1">
          <mxGeometry x="495.65" y="130" width="68.69" height="68" as="geometry" />
        </mxCell>
        <mxCell id="LJ36bw9VPEOvPX9BSpLh-14" value="Operaciones" style="shape=mxgraph.signs.transportation.forklift;html=1;pointerEvents=1;verticalLabelPosition=bottom;verticalAlign=top;align=center;fontColor=#FFFFFF;fontFamily=Verdana;strokeWidth=1;perimeterSpacing=0;shadow=0;fontSize=14;" vertex="1" parent="1">
          <mxGeometry x="324.53" y="380" width="75.47" height="67" as="geometry" />
        </mxCell>
        <mxCell id="LJ36bw9VPEOvPX9BSpLh-28" value="Control de&lt;div&gt;Salida&lt;/div&gt;" style="shape=mxgraph.signs.tech.cell_phone;html=1;pointerEvents=1;verticalLabelPosition=bottom;verticalAlign=top;align=center;sketch=0;fontFamily=Verdana;fontSize=14;fontColor=#FFFFFF;" vertex="1" parent="1">
          <mxGeometry x="690" y="242" width="38.37" height="80" as="geometry" />
        </mxCell>
      </root>
    </mxGraphModel>
  </diagram>
</mxfile>
